<?xml version="1.0" encoding="UTF-8"?>
<svg version="1.1" xmlns="http://www.w3.org/2000/svg" width="4000" height="4000">
<path d="M0 0 C0.8760791 0.01256836 1.7521582 0.02513672 2.65478516 0.03808594 C72.5760659 1.24553713 143.51020282 21.54022493 211 38 C212.84428589 38.44922821 212.84428589 38.44922821 214.72583008 38.90753174 C294.6757408 58.40093989 373.88173645 80.71130898 526.36352539 126.85534668 C530.07193779 128.02264386 533.78104019 129.18772868 537.49023438 130.35253906 C611.93616395 153.74678885 686.22835489 177.89437415 773.91969299 209.12486267 C782.73676027 212.2736562 791.58277614 215.33703065 800.42990112 218.40008545 C844.39340495 233.63709742 887.9741177 249.91983396 931.51735115 266.31004906 C941.09034897 269.91309476 950.67513374 273.48218572 960.27224731 277.02038574 C974.99936196 282.45337688 989.66055463 288.05524394 1004.3125 293.6875 C1005.30358765 294.06813599 1006.29467529 294.44877197 1007.3157959 294.84094238 C1044.62787313 309.18052836 1081.80873091 323.85435865 1118.91625977 338.71435547 C1123.95162769 340.73079172 1128.98825325 342.74406574 1134.02519989 344.7565546 C1159.10518954 354.77891084 1184.1351236 364.91537607 1209.10174942 375.2169342 C1211.78504564 376.32384681 1214.46909512 377.42892887 1217.15307617 378.53417969 C1221.81279206 380.45449652 1226.46983405 382.38118165 1231.125 384.3125 C1232.35314926 384.82185089 1232.35314926 384.82185089 1233.60610962 385.3414917 C1254.77984216 394.12712161 1275.89638685 403.04747775 1297 412 C1298.07795837 412.45713379 1299.15591675 412.91426758 1300.26654053 413.38525391 C1329.45301917 425.76369679 1358.60073424 438.22242502 1387.6317749 450.96142578 C1390.88926842 452.38998457 1394.14803706 453.81562335 1397.40673828 455.24142456 C1447.33949031 477.09184296 1497.07127272 499.37744804 1546.62153625 522.08146667 C1551.63994484 524.37992012 1556.66287041 526.66830825 1561.6875 528.953125 C1578.1829437 536.45867627 1594.61623412 544.08243803 1610.99169922 551.84643555 C1620.16138984 556.19337237 1629.35002051 560.49443972 1638.5625 564.75 C1648.81011286 569.48876777 1659.02052975 574.29958402 1669.16088867 579.2644043 C1674.60179056 581.92314103 1680.05132176 584.47942916 1685.62890625 586.83984375 C1686.68166748 587.29987793 1687.73442871 587.75991211 1688.8190918 588.23388672 C1690.78411388 589.08821684 1692.7630012 589.91168268 1694.75708008 590.69580078 C1698.6124809 592.40250329 1701.31547817 593.75961541 1703.39903259 597.53511047 C1703.77387283 598.51134872 1704.14871307 599.48758698 1704.53491211 600.4934082 C1704.95214539 601.56632614 1705.36937866 602.63924408 1705.79925537 603.74467468 C1706.1955011 604.81893204 1706.59174683 605.89318939 1707 607 C1707.34419983 607.92839188 1707.68839966 608.85678375 1708.04302979 609.81330872 C1709.05656084 612.60986346 1710.03829155 615.41580841 1711.01171875 618.2265625 C1711.37710754 619.2713678 1711.74249634 620.3161731 1712.11895752 621.39263916 C1712.90282253 623.63445104 1713.68522547 625.8767746 1714.46627808 628.11956787 C1716.57820746 634.18171348 1718.7030717 640.23931973 1720.828125 646.296875 C1721.26201035 647.53408295 1721.69589569 648.77129089 1722.14292908 650.04598999 C1726.34483728 662.01180049 1730.62907047 673.94720182 1734.9375 685.875 C1736.42731265 690.00121933 1737.91690953 694.12751647 1739.40625 698.25390625 C1739.9655722 699.80341728 1739.9655722 699.80341728 1740.53619385 701.38423157 C1745.03273822 713.84979363 1749.48467206 726.3312708 1753.9375 738.8125 C1760.46611807 757.10886153 1767.00528126 775.40136808 1773.5625 793.6875 C1774.33700396 795.84797872 1775.11149943 798.00846048 1775.88598633 800.16894531 C1779.59281885 810.5079026 1783.30315861 820.84558707 1787.01982117 831.18101501 C1788.79503552 836.11779114 1790.5685186 841.0551891 1792.3420105 845.99258423 C1793.19149237 848.35626588 1794.04168189 850.71969334 1794.89260864 853.08285522 C1796.06814854 856.34758956 1797.24135503 859.61315363 1798.4140625 862.87890625 C1798.93916161 864.33428299 1798.93916161 864.33428299 1799.47486877 865.81906128 C1799.79463181 866.71094147 1800.11439484 867.60282166 1800.44384766 868.52172852 C1800.72185211 869.29452652 1800.99985657 870.06732452 1801.2862854 870.86354065 C1801.96450102 872.89373606 1802.51222621 874.91671397 1803 877 C1798.26528467 875.34469913 1794.23409289 872.82210847 1790 870.1875 C1788.81639893 869.45781006 1788.81639893 869.45781006 1787.60888672 868.71337891 C1785.0698795 867.14658805 1782.53452141 865.57403554 1780 864 C1755.31712886 848.68555754 1730.51654287 833.6137368 1705.41748047 818.99169922 C1702.19451709 817.11336408 1698.97378522 815.2312726 1695.75390625 813.34765625 C1674.96288317 801.19032287 1654.12131527 789.1326564 1633.0859375 777.40234375 C1628.14162478 774.64369745 1623.21420525 771.85649375 1618.29174805 769.05908203 C1608.58195093 763.5426615 1598.80906816 758.16160442 1588.97363281 752.87255859 C1582.15569313 749.19652152 1575.41090837 745.40818947 1568.6875 741.5625 C1559.23577096 736.16838495 1549.63108286 731.11777751 1539.95092773 726.1472168 C1533.15887403 722.65500092 1526.43025608 719.07594234 1519.75 715.375 C1507.78462897 708.76508823 1495.59686526 702.58649133 1483.41894531 696.38037109 C1482.20887062 695.76313171 1482.20887062 695.76313171 1480.97434998 695.13342285 C1479.49586879 694.379654 1478.01683942 693.62695834 1476.53700256 692.87585449 C1472.67719757 690.90902321 1468.8330197 688.9152152 1465.00564575 686.8860321 C1452.16397322 680.08065784 1439.20472813 673.52894955 1426.203125 667.03515625 C1423.95361628 665.91006375 1421.70416685 664.78485268 1419.45477295 663.65953064 C1414.76932421 661.31607486 1410.08316727 658.9740432 1405.39648438 656.63305664 C1399.45772508 653.66651919 1393.52076334 650.69640477 1387.58433914 647.72519779 C1382.94672276 645.40456239 1378.3081352 643.08587347 1373.66927338 640.76772881 C1371.48302808 639.67493439 1369.29706783 638.58156949 1367.11142731 637.48756599 C1347.06345549 627.45510707 1326.85440694 617.77773682 1306.5625 608.25 C1305.11335069 607.5691172 1303.66421366 606.88820827 1302.21508789 606.20727539 C1299.99012247 605.16190571 1297.765083 604.11669485 1295.5398407 603.07191467 C1291.31361286 601.08761828 1287.0888372 599.10028325 1282.86555481 597.10972595 C1264.78273659 588.5879571 1246.63436384 580.22203878 1228.41552734 571.99511719 C1225.4068581 570.636385 1222.39946889 569.27487317 1219.39306641 567.91113281 C1134.60341211 529.45297406 1048.64051548 493.56468323 433 296 C431.85885742 295.73362732 430.71771484 295.46725464 429.54199219 295.19281006 C404.1668972 289.28705021 378.96588169 283.53108719 353 281 C351.45554199 280.84096191 351.45554199 280.84096191 349.87988281 280.67871094 C343.26015241 280.00469434 336.63862767 279.44968187 330 279 C328.72914551 278.91322998 328.72914551 278.91322998 327.43261719 278.82470703 C275.55001605 275.45583678 207.07087704 274.93871381 165.04907227 311.04150391 C151.51546985 323.23774324 145.01137591 339.05987809 139.1875 355.9375 C138.92954651 356.67809662 138.67159302 357.41869324 138.40582275 358.18173218 C103.8141286 457.52045176 86.02033461 562.31636302 51.875 949.75 C51.83629791 950.88039703 51.79759583 952.01079407 51.75772095 953.17544556 C51.49316102 961.03818975 51.26462265 968.90167709 51.05870438 976.76615524 C51.01822256 978.30658715 50.97718071 979.84700441 50.93568039 981.38740921 C49.95171785 1017.9847591 49.79771878 1054.57647877 49.81177568 1091.18424177 C49.81250671 1093.45835982 49.81275217 1095.73247745 49.8128624 1098.00659561 C49.81663833 1149.20787608 50.26560254 1200.37099363 51.92114258 1251.54914856 C52.00010385 1254.00322774 52.07744327 1256.457353 52.15429688 1258.91149902 C53.71051509 1308.49137256 56.15728494 1358.02290918 58.81640625 1407.5546875 C58.86628504 1408.48392218 58.91616383 1409.41315685 58.96755409 1410.37055016 C59.47575518 1419.80041168 60.00339031 1429.2284286 60.59716797 1438.65332031 C60.64453944 1439.40981684 60.69191092 1440.16631336 60.74071789 1440.94573402 C60.9582763 1444.4092952 61.18095499 1447.87229521 61.41297913 1451.33493042 C61.94183968 1459.57664657 62.09647165 1467.7423626 62 1476 C73.16752744 1470.46490521 84.30742612 1464.89222522 95.31958008 1459.05322266 C102.68668595 1455.1508936 110.09180187 1451.32347911 117.5 1447.5 C126.24129052 1442.9871967 134.97018153 1438.45328353 143.66650391 1433.85424805 C148.48166069 1431.31277001 153.31089607 1428.7993609 158.1484375 1426.30078125 C158.78295837 1425.97302704 159.41747925 1425.64527283 160.07122803 1425.30758667 C163.2177104 1423.68292946 166.36511676 1422.06008951 169.51367188 1420.43945312 C176.62670262 1416.77928429 176.62670262 1416.77928429 183.66894531 1412.98583984 C184.26119904 1412.66020554 184.85345276 1412.33457123 185.46365356 1411.99906921 C187.09877314 1411.096271 188.72946516 1410.18546713 190.35986328 1409.27416992 C193 1408 193 1408 196 1408 C194.25064214 1492.16894981 192.5004491 1576.33790162 187.88671875 1792.83984375 C187.85368878 1794.38108112 187.82065885 1795.9223185 187.78762895 1797.46355587 C186.99116352 1834.62738891 186.19365065 1871.79119945 185.39563204 1908.95499916 C184.88088234 1932.9269428 184.36645202 1956.89889326 183.85229492 1980.87084961 C183.83502388 1981.67608617 183.81775284 1982.48132272 183.79995844 1983.31096039 C183.62631084 1991.40703512 183.45266862 1999.50310996 183.27903034 2007.59918489 C182.92618907 2024.05078885 182.57331214 2040.50239203 182.22041321 2056.95399475 C182.20423379 2057.70825625 182.18805437 2058.46251774 182.17138467 2059.23963565 C181.11486056 2108.4931034 180.05750653 2157.74655334 179 2207 C174.89061639 2207 172.40691329 2204.97264598 169.0625 2202.8125 C168.36374756 2202.3683374 167.66499512 2201.9241748 166.94506836 2201.46655273 C164.6242095 2199.98658845 162.31123264 2198.49494901 160 2197 C159.19691406 2196.48115234 158.39382813 2195.96230469 157.56640625 2195.42773438 C152.50323895 2192.15227307 147.45044117 2188.86106685 142.40039062 2185.56542969 C131.92859779 2178.73618481 121.41054009 2171.98039159 110.875 2165.25 C100.64596273 2158.7138541 90.46525204 2152.10679667 80.3046875 2145.46484375 C73.56102494 2141.0566435 66.79584148 2136.68199085 60.02832031 2132.31054688 C56.51767204 2130.04223201 53.00895887 2127.77092702 49.5 2125.5 C48.08334206 2124.58331985 46.66667541 2123.66665316 45.25 2122.75 C19.75000001 2106.25000001 19.75000001 2106.25000001 17.62695312 2104.8762207 C16.20382839 2103.95540411 14.78065093 2103.03466902 13.35742188 2102.11401367 C9.91413629 2099.88649091 6.47163872 2097.65777601 3.03125 2095.42578125 C-5.33379833 2090.00168199 -13.72311278 2084.61687258 -22.125 2079.25 C-32.35406632 2072.71390006 -42.53474846 2066.10679634 -52.6953125 2059.46484375 C-59.43897506 2055.0566435 -66.20415852 2050.68199085 -72.97167969 2046.31054688 C-76.48232796 2044.04223201 -79.99104113 2041.77092702 -83.5 2039.5 C-84.91665794 2038.58331985 -86.33332459 2037.66665316 -87.75 2036.75 C-113.25 2020.25 -113.25 2020.25 -115.37304688 2018.8762207 C-116.79617161 2017.95540411 -118.21934907 2017.03466902 -119.64257812 2016.11401367 C-123.08586371 2013.88649091 -126.52836128 2011.65777601 -129.96875 2009.42578125 C-138.33379833 2004.00168199 -146.72311278 1998.61687258 -155.125 1993.25 C-165.35406632 1986.71390006 -175.53474846 1980.10679634 -185.6953125 1973.46484375 C-192.43897506 1969.0566435 -199.20415852 1964.68199085 -205.97167969 1960.31054688 C-209.48232796 1958.04223201 -212.99104113 1955.77092702 -216.5 1953.5 C-217.91665794 1952.58331985 -219.33332459 1951.66665316 -220.75 1950.75 C-246.25 1934.25 -246.25 1934.25 -248.37304688 1932.8762207 C-249.79617161 1931.95540411 -251.21934907 1931.03466902 -252.64257812 1930.11401367 C-256.08586371 1927.88649091 -259.52836128 1925.65777601 -262.96875 1923.42578125 C-271.33379833 1918.00168199 -279.72311278 1912.61687258 -288.125 1907.25 C-298.35406632 1900.71390006 -308.53474846 1894.10679634 -318.6953125 1887.46484375 C-325.43897506 1883.0566435 -332.20415852 1878.68199085 -338.97167969 1874.31054688 C-342.48232796 1872.04223201 -345.99104113 1869.77092702 -349.5 1867.5 C-350.91665794 1866.58331985 -352.33332459 1865.66665316 -353.75 1864.75 C-379.25000002 1848.24999999 -379.25000002 1848.24999999 -381.37304688 1846.8762207 C-382.79617161 1845.95540411 -384.21934907 1845.03466902 -385.64257812 1844.11401367 C-389.08586371 1841.88649091 -392.52836128 1839.65777601 -395.96875 1837.42578125 C-403.27476277 1832.68838621 -410.59591607 1827.97580366 -417.93408203 1823.28833008 C-430.14710957 1815.48675648 -442.31993799 1807.62763454 -454.43505859 1799.67480469 C-456.87110873 1798.08416087 -459.31810389 1796.51211903 -461.76953125 1794.9453125 C-463.15894701 1794.04701858 -464.54827674 1793.14859158 -465.9375 1792.25 C-466.56479004 1791.85570801 -467.19208008 1791.46141602 -467.83837891 1791.05517578 C-469.52734375 1789.953125 -469.52734375 1789.953125 -472 1788 C-472 1785 -472 1785 -470.53808594 1783.51708984 C-469.52149902 1782.74679443 -469.52149902 1782.74679443 -468.484375 1781.9609375 C-467.73438232 1781.38553223 -466.98438965 1780.81012695 -466.21166992 1780.21728516 C-465.39931885 1779.60933105 -464.58696777 1779.00137695 -463.75 1778.375 C-462.92024658 1777.74255371 -462.09049316 1777.11010742 -461.2355957 1776.45849609 C-458.83092038 1774.62923274 -456.41727705 1772.81256307 -454 1771 C-452.96746094 1770.22140625 -451.93492187 1769.4428125 -450.87109375 1768.640625 C-449.03393048 1767.26074691 -447.1939435 1765.8846225 -445.3515625 1764.51171875 C-440.89818916 1761.18491797 -436.4827128 1757.80814806 -432.0625 1754.4375 C-430.71128052 1753.40713623 -430.71128052 1753.40713623 -429.33276367 1752.35595703 C-427.4784297 1750.94168166 -425.62418258 1749.52729242 -423.77001953 1748.11279297 C-419.34808113 1744.74002239 -414.92396724 1741.37010868 -410.5 1738 C-408.74998878 1736.66668139 -406.9999888 1735.33334803 -405.25 1734 C-401.75 1731.33333333 -398.25 1728.66666667 -394.75 1726 C-393.88366943 1725.33991943 -393.01733887 1724.67983887 -392.12475586 1723.99975586 C-390.37564439 1722.66713824 -388.62645825 1721.33461862 -386.87719727 1720.00219727 C-382.4879836 1716.65871529 -378.10010178 1713.31351262 -373.71484375 1709.96484375 C-365.10911928 1703.39620777 -356.48535418 1696.85480573 -347.8125 1690.375 C-334.81654606 1680.66862763 -334.81654606 1680.66862763 -322.11572266 1670.58203125 C-320 1669 -320 1669 -317.41162109 1667.63671875 C-314.56705343 1665.98920602 -312.85968919 1664.72249616 -311 1662 C-310.58775211 1657.16245147 -311.57516572 1652.61710981 -312.48474121 1647.88696289 C-313.5121548 1642.13042856 -314.15524823 1636.31618525 -314.8828125 1630.515625 C-315.14981833 1628.45015729 -315.4195017 1626.38505137 -315.68952274 1624.31997585 C-325.83062722 1546.72944965 -333.21641453 1468.8652423 -345.125 1255.0625 C-345.16370209 1253.93101532 -345.20240417 1252.79953064 -345.24227905 1251.63375854 C-345.50498218 1243.82705794 -345.73442251 1236.01973067 -345.94129562 1228.2113533 C-345.98185373 1226.68355758 -346.0228922 1225.15577456 -346.06431961 1223.62800217 C-347.00261349 1188.92282883 -347.2041689 1154.22597242 -347.18834877 1119.50944424 C-347.18749116 1117.41592595 -347.18704482 1115.3224079 -347.18669128 1113.22888947 C-347.17704837 1066.7955736 -346.82959918 1020.40208796 -345 974 C-344.95152042 972.76100449 -344.95152042 972.76100449 -344.90206146 971.49697876 C-342.88057705 919.93816574 -340.07952393 868.43840521 -336 817 C-335.94524002 816.30948296 -335.89048004 815.61896591 -335.83406067 814.90752411 C-329.7696735 738.68385311 -321.14702095 662.63948921 -221 204 C-220.4859964 202.4070813 -220.4859964 202.4070813 -219.96160889 200.78198242 C-170.22199233 46.91911833 -170.22199233 46.91911833 -114.80712891 18.11254883 C-79.62384388 0.90498584 -38.47535256 -0.70790431 0 0 Z " fill="#A61E23" transform="translate(1195,601)"/>
<path d="M0 0 C7.06123484 1.92579132 14.01883965 3.89369021 20.96484375 6.16015625 C21.89443405 6.46165085 22.82402435 6.76314545 23.78178406 7.07377625 C26.83497217 8.06613122 29.88645263 9.06358353 32.9375 10.0625 C34.00466248 10.41147339 35.07182495 10.76044678 36.17132568 11.11999512 C105.15815356 33.71001189 173.29973957 58.82608472 241 85 C241.98941589 85.38165314 242.97883179 85.76330627 243.99822998 86.15652466 C244.95964905 86.52776459 245.92106812 86.89900452 246.91162109 87.28149414 C248.15665909 87.76193932 248.15665909 87.76193932 249.42684937 88.25209045 C262.38540626 93.30848357 275.14448374 98.64353489 288 104 C288 163.73 288 223.46 288 285 C301.86 283.02 301.86 283.02 316 281 C323.6022679 280.11319764 331.19777831 279.25873073 338.8125 278.5 C339.83070831 278.39738861 340.84891663 278.29477722 341.89797974 278.1890564 C358.72678662 276.50322603 375.5720232 275.07600389 392.4375 273.8125 C393.45518463 273.73386719 394.47286926 273.65523437 395.52139282 273.57421875 C435.41861566 270.52443053 475.4159377 269.65474128 515.41625977 269.73925781 C520.86918914 269.7507011 526.3219241 269.74382705 531.77484703 269.73236847 C553.74846696 269.69340118 575.6766446 269.92846915 597.62890625 270.953125 C598.56731794 270.99622551 599.50572964 271.03932602 600.47257805 271.0837326 C603.07922613 271.20658185 605.68526244 271.33773668 608.29125977 271.47363281 C609.06438318 271.51143608 609.8375066 271.54923935 610.634058 271.58818817 C615.88258636 271.88258636 615.88258636 271.88258636 617 273 C617.43129221 280.64483673 616.85145649 288.3743289 616.43727112 296.0103302 C616.3767234 297.16957982 616.31617568 298.32882944 616.25379318 299.52320784 C616.08679085 302.70948861 615.91722002 305.89562016 615.7465142 309.08170426 C615.56238756 312.53023464 615.38163087 315.97894194 615.20043945 319.42762756 C614.84556396 326.17205939 614.48761412 332.91632466 614.12860841 339.66053776 C613.70996891 347.52722168 613.29440736 355.39406731 612.87896275 363.26092049 C612.13709352 377.30696702 611.39245309 391.35286526 610.64624023 405.39868164 C609.9235164 419.00241635 609.20273144 432.60625193 608.48413086 446.21020508 C608.43989133 447.04770622 608.3956518 447.88520736 608.35007168 448.74808732 C608.30590612 449.58419334 608.26174056 450.42029936 608.21623665 451.28174192 C607.39638163 466.80235688 606.57481734 482.32288094 605.75239237 497.84335992 C605.46245049 503.31567221 605.17298798 508.78800974 604.8836689 514.260355 C604.53050489 520.93957609 604.17633472 527.61874304 603.82095451 534.29784659 C603.63994763 537.70004721 603.45946656 541.10227337 603.27983665 544.50454712 C601.89522555 570.71901664 601.89522555 570.71901664 601 582 C592.56488412 582.04004741 584.14325516 582.01193164 575.7109375 581.78125 C574.89586731 581.75895828 574.08079712 581.73666656 573.24102783 581.71369934 C571.52038544 581.66645377 569.79974336 581.619197 568.07910156 581.57192993 C476.25474987 579.12937399 383.89957491 583.79892315 -29.21875 739.29345703 C-39.4060943 749.05353607 -49.36104679 758.82674132 -58 770 C-58.91082026 771.11333746 -59.82512221 772.22383222 -60.7421875 773.33203125 C-109.78287728 832.8849005 -140.1855836 910.81248417 -140.25 988.1875 C-140.25067474 988.92578033 -140.25134949 989.66406067 -140.25204468 990.42471313 C-140.20032647 1026.4065685 -133.63085352 1063.27876862 -116 1095 C-115.43667969 1096.05058594 -114.87335938 1097.10117188 -114.29296875 1098.18359375 C-90.31400469 1141.36819179 -46.01318317 1165.72622218 0 1179 C25.42182488 1185.83335137 51.75290831 1189.3840009 78 1191 C79.01884277 1191.06316406 80.03768555 1191.12632813 81.08740234 1191.19140625 C175.73110378 1196.61197468 274.98386558 1182.73561807 461 1133 C461.99746246 1132.65065399 461.99746246 1132.65065399 463.01507568 1132.29425049 C512.30215052 1114.98816113 560.63430355 1093.62734982 605.953125 1067.5859375 C606.92443359 1067.02793457 607.89574219 1066.46993164 608.89648438 1065.89501953 C610.76023825 1064.82058647 612.62106157 1063.74104939 614.47851562 1062.65576172 C615.71891602 1061.93670654 615.71891602 1061.93670654 616.984375 1061.203125 C617.71366211 1060.77676758 618.44294922 1060.35041016 619.19433594 1059.91113281 C621 1059 621 1059 623 1059 C624.44927436 1082.56585358 625.36639945 1106.15099197 626.0625 1129.75 C626.09452137 1130.83246128 626.09452137 1130.83246128 626.12718964 1131.93679047 C626.70713262 1151.71638476 627.07878632 1171.49417175 627.27734375 1191.28125 C627.28743029 1192.2742234 627.29751682 1193.26719681 627.30790901 1194.29026031 C627.40634999 1204.10386086 627.49406116 1213.91742457 627.55326557 1223.73134422 C627.6779176 1243.71181722 628.11339914 1263.62166449 629.15454865 1283.57672501 C629.90531625 1297.99341537 630.31622436 1312.35999007 630.26074219 1326.80029297 C630.24959244 1330.25113978 630.26099171 1333.70150813 630.2734375 1337.15234375 C630.27212182 1339.39583446 630.26957184 1341.63932488 630.265625 1343.8828125 C630.26967346 1344.89095001 630.27372192 1345.89908752 630.27789307 1346.93777466 C630.24008654 1352.60458716 630.12913363 1357.70617468 628 1363 C625.49868541 1364.75671223 623.71905169 1365.72203099 620.94140625 1366.7890625 C620.21881622 1367.09464584 619.4962262 1367.40022919 618.7517395 1367.71507263 C616.36650799 1368.71490919 613.96595087 1369.66988667 611.5625 1370.625 C609.87700672 1371.31975266 608.19252963 1372.01697528 606.5090332 1372.71655273 C602.1824465 1374.50531229 597.84165542 1376.25634596 593.4954834 1377.99688721 C590.42323578 1379.23184268 587.35988587 1380.48778306 584.29699707 1381.74572754 C501.69454703 1415.64615501 416.41547451 1443.43158617 288 1473 C288.01198331 1474.12644676 288.02396662 1475.25289352 288.03631306 1476.41347504 C288.32489896 1503.82158852 288.5385286 1531.22950501 288.67355824 1558.63881683 C288.74059372 1571.89387504 288.83198418 1585.1479297 288.98071289 1598.40234375 C289.11028333 1609.95491656 289.19415523 1621.50676268 289.22315043 1633.0600419 C289.24010077 1639.17796188 289.27992978 1645.29380296 289.37449074 1651.41105652 C289.46279731 1657.17041795 289.48994098 1662.92684686 289.47039986 1668.68682098 C289.47397382 1670.79929809 289.49980537 1672.91187407 289.54967117 1675.02376556 C289.89834111 1690.5534001 289.89834111 1690.5534001 286.75238585 1694.60793686 C283.26541692 1697.67881072 279.30436787 1699.30122653 275 1701 C272.93762252 1702.10516665 270.88589787 1703.23074566 268.8515625 1704.38671875 C266.77782027 1705.49032777 264.70224684 1706.59050169 262.625 1707.6875 C254.15952132 1712.19727257 245.76212788 1716.79791267 237.4375 1721.5625 C228.49455216 1726.6685523 219.4249651 1731.47993608 210.26977539 1736.19335938 C203.41902164 1739.72497219 196.62831106 1743.34814857 189.875 1747.0625 C181.50125203 1751.66658886 173.05913927 1756.12023226 164.57421875 1760.515625 C158.29166042 1763.77918215 152.07156639 1767.13902827 145.875 1770.5625 C133.38778528 1777.44451898 120.67316331 1783.88376601 107.98040771 1790.3752594 C107.19925598 1790.77478317 106.41810425 1791.17430695 105.61328125 1791.5859375 C104.46113129 1792.17513222 104.46113129 1792.17513222 103.28570557 1792.77622986 C97.8378391 1795.56465402 92.40779808 1798.38452575 87 1801.25 C62.85238935 1814.03353216 38.60964722 1826.7053145 13.8125 1838.1875 C12.77762451 1838.66993164 11.74274902 1839.15236328 10.67651367 1839.64941406 C9.71720947 1840.08866211 8.75790527 1840.52791016 7.76953125 1840.98046875 C6.91979736 1841.37129639 6.07006348 1841.76212402 5.19458008 1842.16479492 C3 1843 3 1843 0 1843 C0 1726.18 0 1609.36 0 1489 C-4.29 1488.67 -8.58 1488.34 -13 1488 C-15.51010685 1487.66756452 -18.01602407 1487.2984786 -20.51171875 1486.87109375 C-21.15493576 1486.7614328 -21.79815277 1486.65177185 -22.46086121 1486.53878784 C-24.53806072 1486.1804545 -26.61292496 1485.8107136 -28.6875 1485.4375 C-29.78206512 1485.24201065 -29.78206512 1485.24201065 -30.89874268 1485.04257202 C-77.85843218 1476.59853845 -123.58417311 1462.89282156 -167 1443 C-167.99708984 1442.54399414 -168.99417969 1442.08798828 -170.02148438 1441.61816406 C-227.31527429 1415.2180844 -277.90518166 1378.02767817 -322.5 1333.625 C-323.2415332 1332.88813965 -323.98306641 1332.1512793 -324.74707031 1331.39208984 C-329.36911087 1326.7564612 -333.74008186 1321.96861126 -338 1317 C-338.94952606 1315.91709569 -339.89999665 1314.8350186 -340.8515625 1313.75390625 C-362.22278161 1289.25128926 -380.29560169 1262.4276758 -396 1234 C-396.69609375 1232.74775635 -396.69609375 1232.74775635 -397.40625 1231.47021484 C-424.04072601 1183.24251841 -440.44125381 1128.62585365 -447 1074 C-447.22429687 1072.2684668 -447.22429687 1072.2684668 -447.453125 1070.50195312 C-453.11478087 1025.37953198 -452.1578057 977.12773117 -447 932 C-446.8691803 930.84670197 -446.8691803 930.84670197 -446.73571777 929.67010498 C-438.35061826 856.57440255 -418.99881672 785.93226386 -324.37402344 604.81396484 C-322.91740081 602.89095381 -321.4769831 600.95656092 -320.0390625 599.01953125 C-307.35306995 581.95497021 -294.14971688 565.49597444 -279.66796875 549.9140625 C-277.66581929 547.72723454 -275.71702158 545.51997233 -273.78222656 543.27514648 C-270.27113294 539.25769437 -266.59433436 535.44912459 -262.81640625 531.68359375 C-262.15720688 531.02343765 -261.49800751 530.36328156 -260.8188324 529.68312073 C-259.43603165 528.29964494 -258.05198924 526.91740917 -256.66674805 525.53637695 C-254.56769657 523.44268331 -252.4740406 521.34370126 -250.38085938 519.24414062 C-249.02636214 517.89030429 -247.67155469 516.53677825 -246.31640625 515.18359375 C-245.39415001 514.25830116 -245.39415001 514.25830116 -244.45326233 513.3143158 C-240.67585226 509.5568356 -236.7792348 505.98726755 -232.74493408 502.50682068 C-230.52153512 500.58682636 -228.35559783 498.6070439 -226.1875 496.625 C-221.9455915 492.80085522 -217.59448903 489.15110545 -213.15234375 485.5625 C-210.81140119 483.66979087 -208.49750788 481.74749825 -206.19140625 479.8125 C-195.77219609 471.09378007 -185.03500361 462.92244811 -174 455 C-173.25685547 454.46600586 -172.51371094 453.93201172 -171.74804688 453.38183594 C-125.47786907 420.22906879 -75.5987964 391.92648899 -23.4375 369.125 C-22.7686377 368.83190948 -22.09977539 368.53881897 -21.41064453 368.23684692 C-14.34211813 365.15115823 -7.34207995 362.44735998 0 360 C0 241.2 0 122.4 0 0 Z " fill="#A61E23" transform="translate(1910,1036)"/>
<path d="M0 0 C38.9832361 12.9090607 77.90641483 26.0101539 116.65872192 39.59780884 C130.57916857 44.47831091 144.53041493 49.26206181 158.5 54 C173.46288116 59.07495388 188.40165001 64.21164428 203.3125 69.4375 C219.90672778 75.25317649 236.54196317 80.94065229 253.19595337 86.58273315 C268.53154007 91.77988193 283.8352585 97.06012982 299.11572266 102.41699219 C314.76655653 107.90104904 330.46043815 113.25253224 346.16757202 118.57293701 C362.94822398 124.25872442 379.69336774 130.03954103 396.40820312 135.91601562 C398.03902656 136.48838366 399.66988529 137.06065114 401.30078125 137.6328125 C402.47315842 138.04536285 402.47315842 138.04536285 403.66921997 138.46624756 C408.04953018 139.99924081 412.44296029 141.47967618 416.85693359 142.91308594 C417.8265654 143.22937958 418.7961972 143.54567322 419.79521179 143.87155151 C421.67717065 144.48285402 423.56124283 145.08769697 425.44758606 145.68533325 C426.71139351 146.09608597 426.71139351 146.09608597 428.00073242 146.51513672 C429.12459602 146.8736824 429.12459602 146.8736824 430.27116394 147.23947144 C432 148 432 148 433 150 C431.7897205 152.3762032 430.51442529 154.60422882 429.125 156.875 C428.6822876 157.61258545 428.2395752 158.3501709 427.78344727 159.11010742 C426.19768734 161.74543506 424.59898482 164.37267682 423 167 C421.7145068 169.12349398 420.42936944 171.24720339 419.14453125 173.37109375 C415.52434359 179.34818554 411.89353479 185.31875599 408.25976562 191.28759766 C404.5653225 197.35615707 400.87577697 203.42769149 397.1875 209.5 C396.83510254 210.0800882 396.48270508 210.66017639 396.11962891 211.25784302 C389.70724513 221.81513688 383.33893928 232.39845993 377 243 C380.89134496 247.78705384 380.89134496 247.78705384 385.375 252 C389.48995566 255.50706448 393.4338748 259.17566762 397.375 262.875 C402.36324225 267.55101796 407.38699649 272.17711607 412.484375 276.734375 C416.03268798 279.9300606 419.53577726 283.17375265 423.04125977 286.41625977 C428.18187101 291.17111797 433.34253683 295.90375773 438.50732422 300.63232422 C440.02814876 302.02579152 441.54747324 303.42087751 443.06640625 304.81640625 C447.67073948 309.04523476 452.28276595 313.26403086 456.9375 317.4375 C463.0153593 322.89694437 469.01436261 328.43995797 475 334 C475.64308105 334.59651367 476.28616211 335.19302734 476.94873047 335.80761719 C500.00645436 357.21796192 500.00645436 357.21796192 508.11328125 366.77734375 C509.61076123 368.54145578 511.12942783 370.27605581 512.66796875 372.00390625 C546.8050062 410.62125397 562.95795381 454.55283379 561 506 C558.29338966 545.49713475 544.00712878 583.64703764 527 619 C526.24178955 620.58216309 526.24178955 620.58216309 525.46826172 622.19628906 C518.21072419 637.25449135 510.29569269 651.79226581 501.70996094 666.13134766 C500.05104209 668.91437113 498.41599157 671.7098966 496.7890625 674.51171875 C484.45354672 695.71142065 470.96260759 716.14292932 457.33056641 736.52148438 C451.48815389 745.2564081 445.6859762 754.01548925 439.9375 762.8125 C438.40389142 765.15771274 436.86995183 767.50270889 435.3359375 769.84765625 C434.93243073 770.46448273 434.52892395 771.0813092 434.1131897 771.71682739 C428.41308545 780.42809756 422.70206016 789.13217473 416.98171997 797.83016968 C415.72404296 799.743553 414.46739283 801.65761179 413.21188354 803.57241821 C405.75550386 814.94293565 398.15793239 826.18133621 390.25192261 837.2442627 C388.54937045 839.63197766 386.86691489 842.03347157 385.1875 844.4375 C384.65640625 845.19748291 384.1253125 845.95746582 383.578125 846.74047852 C383.05734375 847.48612061 382.5365625 848.2317627 382 849 C380.22956638 851.53006519 378.45857653 854.0597403 376.6875 856.58935547 C375.60373049 858.13755283 374.52036256 859.68603143 373.4375 861.23486328 C367.16854973 870.19546245 360.78576255 879.06038519 354.27685547 887.84838867 C350.88443692 892.43099081 347.52621687 897.03500007 344.20532227 901.66967773 C337.65810488 910.80624728 330.89355735 919.76082963 324.05859375 928.68359375 C320.06187324 933.90550227 316.12137997 939.16818321 312.1875 944.4375 C307.14550385 951.18098279 302.03056789 957.85452618 296.80078125 964.453125 C294.14553088 967.8049128 291.52809262 971.18522916 288.91137695 974.56713867 C283.23863989 981.8958777 277.48161673 989.14262583 271.61157227 996.31420898 C268.35423849 1000.30323745 265.18013428 1004.33829407 262.0625 1008.4375 C256.9679285 1015.11945022 251.62069196 1021.58019213 246.26171875 1028.05078125 C243.08048884 1031.89351797 239.95664105 1035.77912264 236.8515625 1039.68359375 C234.02370586 1043.22139752 231.15012551 1046.72130002 228.27734375 1050.22265625 C226.78699798 1052.04021344 225.29988506 1053.86042748 223.81640625 1055.68359375 C219.2786272 1061.25673058 214.67015029 1066.76215396 210.01391602 1072.23608398 C207.30687886 1075.42765287 204.65746892 1078.6534107 202.0625 1081.9375 C198.32748109 1086.652196 194.42043651 1091.20411224 190.49243164 1095.75756836 C187.44316393 1099.2983283 184.4447379 1102.87118506 181.5 1106.5 C177.10937717 1111.90506276 172.58087403 1117.18323752 168.0390625 1122.4609375 C165.17402911 1125.79165251 162.3334206 1129.14238379 159.5 1132.5 C154.70935931 1138.17310445 149.88462305 1143.81625658 145.046875 1149.44921875 C142.9903355 1151.84388299 140.93862686 1154.24256169 138.890625 1156.64453125 C134.42228669 1161.88064468 129.94582096 1167.09567332 125.3125 1172.1875 C122.37757249 1175.41539711 119.59583974 1178.71508353 116.875 1182.125 C112.34754877 1187.72851799 107.45649907 1192.94940933 102.49169922 1198.16650391 C98.20425385 1202.67655571 94.07763829 1207.3000792 90 1212 C83.87204244 1218.88866953 77.64044808 1225.68296998 71.40283203 1232.47216797 C70.02643728 1233.97120702 68.65158261 1235.47164076 67.27734375 1236.97265625 C35.72533297 1271.43541109 35.72533297 1271.43541109 25.81347656 1281.15356445 C24.10971124 1282.88829481 22.53860743 1284.6756031 20.96875 1286.53125 C15.80670689 1292.4689652 10.14175805 1297.91653748 4.54296875 1303.43652344 C3.10980594 1304.85133713 1.67986733 1306.26935698 0.25 1307.6875 C-0.59046875 1308.51636719 -1.4309375 1309.34523438 -2.296875 1310.19921875 C-4.34309385 1312.31936169 -6.27094038 1314.45165958 -8.18774414 1316.68334961 C-12.64016281 1321.8141561 -17.43914323 1326.58249677 -22.24609375 1331.37890625 C-23.22598053 1332.35946881 -24.20571901 1333.34017959 -25.18531799 1334.32102966 C-27.2268264 1336.36400213 -29.27010566 1338.40518169 -31.31469727 1340.44506836 C-33.91452404 1343.03919866 -36.50983373 1345.63779434 -39.10381985 1348.2377634 C-41.12249396 1350.26007825 -43.14357733 1352.2799719 -45.1653614 1354.29917717 C-46.58232324 1355.71516246 -47.99729817 1357.13313515 -49.41221619 1358.55116272 C-53.90082376 1363.02365063 -58.44632963 1367.34693067 -63.25306702 1371.47544861 C-65.71780673 1373.62643116 -68.01607697 1375.92143419 -70.3125 1378.25 C-70.77052002 1378.71180664 -71.22854004 1379.17361328 -71.70043945 1379.64941406 C-73.13616175 1381.09712722 -74.56852432 1382.54808857 -76 1384 C-81.60001008 1389.67995584 -87.19569757 1395.29551778 -93.26171875 1400.484375 C-95.80766634 1402.70421245 -98.13992189 1405.08305254 -100.5 1407.5 C-104.25149794 1411.30869334 -108.10589769 1414.91966876 -112.171875 1418.390625 C-114.60740663 1420.5347255 -116.85402657 1422.84160774 -119.12548828 1425.15673828 C-120.93622484 1426.93728804 -122.80153552 1428.60224012 -124.7265625 1430.2578125 C-128.87394648 1433.86365301 -132.88322265 1437.59859751 -136.875 1441.375 C-142.0761541 1446.27341918 -147.30576996 1451.12918294 -152.63671875 1455.88671875 C-155.31552066 1458.28214327 -157.97038969 1460.70280427 -160.625 1463.125 C-164.37112258 1466.53486474 -168.14940512 1469.89978972 -171.97265625 1473.22265625 C-174.33489173 1475.29359487 -176.66795853 1477.39512848 -179 1479.5 C-184.36016811 1484.33227276 -189.77009574 1489.09818856 -195.2578125 1493.78515625 C-196.46356676 1494.81507479 -197.66929523 1495.84502353 -198.875 1496.875 C-199.7877771 1497.65447998 -199.7877771 1497.65447998 -200.71899414 1498.44970703 C-204.25623858 1501.47892533 -207.74392577 1504.55148583 -211.1875 1507.6875 C-215.42708043 1511.53851005 -219.82932112 1515.14843955 -224.28125 1518.75 C-226.92147729 1520.93501569 -229.4672972 1523.19171391 -232 1525.5 C-236.2228256 1529.34436481 -240.58644573 1532.96525534 -245.0234375 1536.55859375 C-248.34784872 1539.28530899 -251.61584882 1542.07094744 -254.875 1544.875 C-255.46635742 1545.38321289 -256.05771484 1545.89142578 -256.66699219 1546.41503906 C-257.86110838 1547.44144596 -259.05511914 1548.46797554 -260.24902344 1549.49462891 C-267.9367532 1556.10401843 -275.68123104 1562.58061376 -283.69042969 1568.79833984 C-288.60011368 1572.63258223 -293.32546795 1576.65687798 -298.03540039 1580.73242188 C-302.03762935 1584.19101333 -306.1069995 1587.54048976 -310.2578125 1590.8203125 C-313.08507074 1593.06762033 -315.88605838 1595.34477865 -318.68457031 1597.62768555 C-326.15379103 1603.72048604 -333.68542298 1609.72452599 -341.28222656 1615.65722656 C-344.19271641 1617.93233943 -347.09591641 1620.21671982 -350 1622.5 C-351.17185235 1623.42060174 -352.34372732 1624.34117471 -353.515625 1625.26171875 C-355.79782527 1627.05478524 -358.07902056 1628.849118 -360.359375 1630.64453125 C-363.90298679 1633.43385556 -367.4506634 1636.21796511 -371 1639 C-371.67514648 1639.52964355 -372.35029297 1640.05928711 -373.04589844 1640.60498047 C-382.39174397 1647.92981364 -391.8100629 1655.14614158 -401.32446289 1662.25073242 C-407.43432553 1666.81532883 -413.50482037 1671.42894172 -419.5625 1676.0625 C-428.51218475 1682.90001623 -437.54946567 1689.60946534 -446.63525391 1696.26464844 C-449.06664801 1698.04890915 -451.49299536 1699.83983672 -453.91796875 1701.6328125 C-461.48504006 1707.22671526 -469.06151846 1712.80224113 -476.73486328 1718.24975586 C-479.90131758 1720.49802052 -483.05522462 1722.76188128 -486.1953125 1725.046875 C-494.76792173 1731.28201379 -503.41350658 1737.38150975 -512.18115234 1743.33959961 C-516.76863328 1746.46057529 -521.31427714 1749.62691861 -525.8125 1752.875 C-534.74377441 1759.29954365 -543.85680704 1765.45544953 -552.96673584 1771.62280273 C-555.26060455 1773.1765161 -557.55341552 1774.73178383 -559.84619141 1776.28710938 C-599.36247643 1803.0861856 -599.36247643 1803.0861856 -617.66992188 1814.53027344 C-621.87297065 1817.18140018 -626.02752934 1819.90698236 -630.1875 1822.625 C-660.65375156 1842.49014208 -691.76507108 1861.37322049 -723 1880 C-723.84288574 1880.50321777 -724.68577148 1881.00643555 -725.55419922 1881.52490234 C-748.15950412 1895.00481823 -770.9897967 1908.03496762 -794.18115234 1920.47949219 C-796.91609375 1921.95474033 -799.64140929 1923.44610763 -802.36328125 1924.9453125 C-815.49989126 1932.17956478 -828.77802567 1939.12215881 -842.11732483 1945.97320557 C-846.87761715 1948.41903859 -851.62936432 1950.88102352 -856.37890625 1953.34765625 C-871.18727578 1961.03103238 -886.04202594 1968.54307152 -901.140625 1975.64453125 C-904.18629586 1977.08831238 -907.21912556 1978.55667016 -910.25 1980.03125 C-926.72262047 1988.04163878 -943.33693185 1995.69500915 -960.03808594 2003.21386719 C-963.63617305 2004.83432003 -967.22866452 2006.46688188 -970.8203125 2008.1015625 C-1061.66468274 2049.30890523 -1154.89757033 2085.39421509 -1280.31573486 2131.65258789 C-1284.11737184 2133.04292531 -1287.91792788 2134.43618428 -1291.71826172 2135.83007812 C-1297.57088929 2137.97639242 -1303.42566168 2140.1167537 -1309.28277397 2142.25080013 C-1312.36113657 2143.37240607 -1315.4386312 2144.4962729 -1318.51464844 2145.6242981 C-1389.61286935 2171.67904577 -1471.78709812 2189.2610309 -1544.19897461 2156.87841797 C-1569.15996633 2145.1131232 -1589.88973629 2125.13268333 -1606 2103 C-1606.48952148 2102.33355469 -1606.97904297 2101.66710938 -1607.48339844 2100.98046875 C-1614.08434009 2091.95597274 -1620.22672362 2082.75347437 -1625.80761719 2073.06542969 C-1627.09166453 2070.84121992 -1628.39344283 2068.62788317 -1629.6953125 2066.4140625 C-1636.319488 2055.06522524 -1642.43922888 2043.48745682 -1648.42993164 2031.796875 C-1652.20644951 2024.43239159 -1656.06497148 2017.12253533 -1660.0625 2009.875 C-1664.50592964 2001.81529532 -1668.78514597 1993.68150509 -1673 1985.5 C-1677.72316571 1976.33241279 -1682.55791871 1967.24103463 -1687.53125 1958.20703125 C-1691.86602558 1950.30785135 -1696.01200785 1942.31665838 -1700.14697266 1934.31152344 C-1703.6574927 1927.53323764 -1707.25625702 1920.81193871 -1710.9375 1914.125 C-1716.04777437 1904.83975346 -1720.93501808 1895.44925247 -1725.78881836 1886.02783203 C-1729.43582152 1878.96675199 -1733.16578596 1871.96104635 -1737 1865 C-1742.09112958 1855.7570134 -1746.95645659 1846.40766395 -1751.7890625 1837.02734375 C-1755.43599508 1829.96643243 -1759.16587386 1822.96088677 -1763 1816 C-1767.46271153 1807.89791142 -1771.76376531 1799.72270094 -1776 1791.5 C-1780.72318138 1782.33242046 -1785.55791845 1773.24103511 -1790.53125 1764.20703125 C-1794.86602558 1756.30785135 -1799.01200785 1748.31665838 -1803.14697266 1740.31152344 C-1806.6574927 1733.53323764 -1810.25625702 1726.81193871 -1813.9375 1720.125 C-1819.04777437 1710.83975346 -1823.93501808 1701.44925247 -1828.78881836 1692.02783203 C-1832.43582152 1684.96675199 -1836.16578596 1677.96104635 -1840 1671 C-1845.09112958 1661.7570134 -1849.95645659 1652.40766395 -1854.7890625 1643.02734375 C-1858.43599508 1635.96643243 -1862.16587386 1628.96088677 -1866 1622 C-1871.09112958 1612.7570134 -1875.95645659 1603.40766395 -1880.7890625 1594.02734375 C-1884.43599508 1586.96643243 -1888.16587386 1579.96088677 -1892 1573 C-1896.46271153 1564.89791142 -1900.76376531 1556.72270094 -1905 1548.5 C-1909.72318138 1539.33242046 -1914.55791845 1530.24103511 -1919.53125 1521.20703125 C-1923.86602558 1513.30785135 -1928.01200785 1505.31665838 -1932.14697266 1497.31152344 C-1935.65750072 1490.53322215 -1939.25676581 1483.81222898 -1942.9375 1477.125 C-1947.29374612 1469.19667612 -1951.55539436 1461.22171843 -1955.7361145 1453.199646 C-1956.66965646 1451.40922182 -1957.6071296 1449.62084915 -1958.54467773 1447.83251953 C-1959.11130127 1446.74052246 -1959.6779248 1445.64852539 -1960.26171875 1444.5234375 C-1960.76662842 1443.55325684 -1961.27153809 1442.58307617 -1961.79174805 1441.58349609 C-1962.83156327 1439.36015306 -1963.52373437 1437.39653186 -1964 1435 C-1957.97429942 1438.90115348 -1952.245657 1443.03869522 -1946.625 1447.5 C-1938.01083268 1454.26653529 -1929.23369783 1460.78623842 -1920.39111328 1467.25 C-1916.41988159 1470.15645178 -1912.46059065 1473.07907459 -1908.5 1476 C-1906.91800554 1477.16541452 -1905.33597427 1478.33077909 -1903.75390625 1479.49609375 C-1900.57249389 1481.84012017 -1897.39299384 1484.18670882 -1894.21484375 1486.53515625 C-1884.26749942 1493.88215324 -1874.27501949 1501.16237651 -1864.23828125 1508.38671875 C-1861.97933793 1510.01489256 -1859.72357339 1511.64737625 -1857.46875 1513.28125 C-1848.05860158 1520.09773133 -1838.60052439 1526.84113669 -1829.09570312 1533.52490234 C-1827.01513757 1534.98934516 -1824.93683858 1536.45694191 -1822.859375 1537.92578125 C-1813.61653123 1544.46067584 -1804.35209785 1550.96416609 -1795.07421875 1557.44921875 C-1791.80156599 1559.73726788 -1788.53334789 1562.03139712 -1785.26953125 1564.33203125 C-1772.41359883 1573.3845512 -1759.42076941 1582.23022505 -1746.39208984 1591.03125 C-1742.27092395 1593.81568987 -1738.15354882 1596.60570589 -1734.03627014 1599.39588928 C-1730.22467092 1601.97798016 -1726.41123968 1604.55735671 -1722.59744263 1607.13619995 C-1720.72611829 1608.40215422 -1718.85539258 1609.66899392 -1716.98532104 1610.9367981 C-1706.94402184 1617.74252107 -1696.85874594 1624.42772816 -1686.53857422 1630.8034668 C-1681.52752016 1633.90095392 -1676.60874188 1637.13739951 -1671.6875 1640.375 C-1661.52530873 1647.0261747 -1651.30857963 1653.57807034 -1641 1660 C-1640.06446289 1660.58297852 -1639.12892578 1661.16595703 -1638.16503906 1661.76660156 C-1613.09038653 1677.35972261 -1587.73826507 1692.52602393 -1562 1707 C-1561.28408691 1707.40412109 -1560.56817383 1707.80824219 -1559.83056641 1708.22460938 C-1487.37133021 1749.07768989 -1409.28255918 1787.56606257 -1134.78295898 1784.27050781 C-1084.4486603 1770.12108536 -1036.23767877 1750.25485606 -989 1728 C-988.00822754 1727.53303711 -987.01645508 1727.06607422 -985.99462891 1726.58496094 C-962.29415168 1715.39015157 -938.74263485 1703.77401907 -915.609375 1691.4453125 C-911.06417251 1689.02375422 -906.48999512 1686.65965323 -901.9152832 1684.29443359 C-892.97123512 1679.66850509 -884.07067981 1674.98229245 -875.25 1670.125 C-866.73935237 1665.43879193 -858.14021162 1660.94076114 -849.5 1656.5 C-840.08530647 1651.65960842 -830.72884854 1646.73301735 -821.45483398 1641.62670898 C-816.25056068 1638.76438243 -811.02822829 1635.93952168 -805.78125 1633.15625 C-805.15273132 1632.82283096 -804.52421265 1632.48941193 -803.87664795 1632.14588928 C-802.58783416 1631.46237571 -801.29899523 1630.77890954 -800.01013184 1630.0954895 C-789.24553838 1624.38613939 -778.57022875 1618.55616744 -767.98852539 1612.51196289 C-762.21609725 1609.22375416 -756.39608037 1606.06048514 -750.5 1603 C-742.64871788 1598.92119743 -734.94253315 1594.61810125 -727.25439453 1590.24047852 C-719.95223227 1586.08787856 -712.61068162 1582.01273557 -705.24887085 1577.96731567 C-692.75931757 1571.10348206 -680.34365807 1564.12339345 -668 1557 C-665.94794307 1555.81766251 -663.89585843 1554.63537311 -661.84375 1553.453125 C-657.45421043 1550.92319496 -653.06645147 1548.39020808 -648.6796875 1545.85546875 C-644.27220515 1543.30942383 -639.86065544 1540.77066852 -635.4453125 1538.23828125 C-623.83763797 1531.57485804 -612.29015168 1524.82607346 -600.8293457 1517.9128418 C-594.89581783 1514.33419004 -588.95005803 1510.77863928 -582.984375 1507.25390625 C-564.84262803 1496.55308573 -564.84262803 1496.55308573 -546.95996094 1485.42724609 C-540.88150413 1481.53860272 -534.74199434 1477.75522561 -528.58828735 1473.98690796 C-519.45861029 1468.39487709 -510.38757823 1462.73572696 -501.42578125 1456.87890625 C-498.08374519 1454.69649408 -494.7235028 1452.54441565 -491.35546875 1450.40234375 C-477.43595868 1441.54850624 -463.65806225 1432.50754653 -449.95753479 1423.32061768 C-446.22196938 1420.81611375 -442.48019427 1418.32116951 -438.734375 1415.83203125 C-406.48053307 1394.39843263 -374.63342582 1372.36946691 -343.27490234 1349.64550781 C-340.99493621 1347.9963372 -338.71101766 1346.35279572 -336.42578125 1344.7109375 C-328.59248329 1339.07928627 -320.80603747 1333.39593457 -313.10449219 1327.58520508 C-308.77139826 1324.31831681 -304.41008319 1321.09308349 -300.03149414 1317.88745117 C-290.55214873 1310.94503517 -281.24458215 1303.80802529 -271.99707031 1296.56054688 C-269.17726395 1294.35709916 -266.33967472 1292.17779565 -263.5 1290 C-251.82017363 1281.02342904 -240.17412922 1272.01839856 -228.76953125 1262.69311523 C-224.44687391 1259.16204452 -220.0856596 1255.68649636 -215.6875 1252.25 C-209.71997136 1247.58538874 -203.84645443 1242.81574617 -198 1238 C-196.20842294 1236.54155659 -194.41675498 1235.08322483 -192.625 1233.625 C-187.98324504 1229.82960492 -183.40268649 1225.96704953 -178.83422852 1222.08422852 C-175.4408462 1219.20479732 -172.01750083 1216.36810273 -168.5625 1213.5625 C-162.55426535 1208.66883642 -156.68540867 1203.61973208 -150.81591797 1198.56152344 C-148.99699352 1196.9974147 -147.17319921 1195.43918924 -145.34765625 1193.8828125 C-140.11360028 1189.41768077 -134.90162956 1184.94336671 -129.8125 1180.3125 C-126.56329601 1177.35867819 -123.24125315 1174.55550252 -119.8125 1171.8125 C-113.74392602 1166.90764404 -108.11293336 1161.57244999 -102.4375 1156.22265625 C-99.35693988 1153.32179547 -96.20919844 1150.51613429 -93.00390625 1147.75390625 C-88.78465425 1144.06103267 -84.68482363 1140.23280603 -80.56005859 1136.43505859 C-78.55732042 1134.59279021 -76.5502314 1132.7553044 -74.54296875 1130.91796875 C-51.67776067 1110.16334562 -51.67776067 1110.16334562 -29.625 1088.5625 C-27.68368628 1086.66740803 -25.75457201 1084.93142858 -23.68969727 1083.18530273 C-17.27796672 1077.59101047 -11.34815929 1071.49189049 -5.33984375 1065.47265625 C-4.02297787 1064.1564654 -2.7059637 1062.8404229 -1.3888092 1061.52452087 C1.36034074 1058.77683856 4.10769119 1056.0273731 6.85375977 1053.27661133 C10.35590003 1049.76877437 13.86251151 1046.26544693 17.37049198 1042.76345158 C20.08764855 1040.04992594 22.80239743 1037.33400155 25.51644707 1034.6173687 C26.80777245 1033.32538104 28.09982772 1032.03412245 29.39265633 1030.74363899 C38.25896563 1021.92569731 38.25896563 1021.92569731 46.6025238 1012.61766052 C49.22824003 1009.57824025 52.13162886 1006.80795928 55 1004 C59.34264347 999.70758029 63.54675785 995.38465427 67.49609375 990.72265625 C69.59751679 988.31557168 71.87827516 986.11000627 74.15795898 983.87329102 C75.93557328 982.06551971 77.59742981 980.20334651 79.25 978.28125 C83.49911906 973.39363897 87.94143033 968.70100551 92.39453125 964 C96.14272038 960.02676432 99.78963239 955.98672005 103.37011719 951.86181641 C105.65342924 949.25358726 108.01226263 946.72407241 110.375 944.1875 C113.86767491 940.41258873 117.21510007 936.57441715 120.4375 932.5625 C123.80346662 928.37762201 127.33179641 924.41689536 131 920.5 C135.49961275 915.69456083 139.73103459 910.74838757 143.85546875 905.61328125 C145.99874956 903.00152377 148.2238033 900.49634698 150.5 898 C154.36214567 893.7569853 158.00754309 889.37657134 161.6171875 884.91796875 C164.20756202 881.7458216 166.84697367 878.61969439 169.5 875.5 C174.40476016 869.72373287 179.22144686 863.88129617 184 858 C185.02064434 856.74984568 186.04149067 855.49985625 187.0625 854.25 C192.74112513 847.29036103 198.37208437 840.2989129 203.90356445 833.22167969 C207.25708306 828.933554 210.65292538 824.68114161 214.0625 820.4375 C219.47140791 813.6969552 224.75227415 806.86634259 230 800 C231.5411838 797.99962788 233.08286314 795.99963747 234.625 794 C235.91057248 792.32800368 237.19504324 790.655168 238.47900391 788.98193359 C239.58227259 787.54431961 240.68619958 786.10721075 241.79052734 784.67041016 C250.5176613 773.30734346 259.09017108 761.85667757 267.42333984 750.20166016 C270.10349913 746.45906547 272.80299711 742.73046407 275.5 739 C276.5872638 737.49350706 277.67450342 735.98699667 278.76171875 734.48046875 C280.88386615 731.54157174 283.0117381 728.60696038 285.14453125 725.67578125 C299.86480955 705.42058716 313.98658134 684.74838489 328 664 C328.56734863 663.16065918 329.13469727 662.32131836 329.71923828 661.45654297 C358.43912961 618.89912528 391.77057746 568.85339511 382 515 C376.07601538 485.9699652 359.78461493 460.44116211 341 438 C340.15953125 436.98679687 339.3190625 435.97359375 338.453125 434.9296875 C333.01260795 428.40943257 327.40132908 422.07508912 321.62890625 415.84765625 C319.16026441 413.17359994 316.73208428 410.46840086 314.3125 407.75 C310.95928521 404.00826656 307.47447078 400.44923258 303.89453125 396.92578125 C302.03189301 395.03241908 300.29165445 393.07785932 298.5625 391.0625 C295.99334729 388.07198284 293.30682744 385.26883316 290.5 382.5 C286.45161468 378.49972792 282.68498015 374.33423855 279 370 C277.85421223 368.66662751 276.70838146 367.33329198 275.5625 366 C274.2940625 364.515 274.2940625 364.515 273 363 C268.75617469 363.50763461 266.18963187 366.14825631 263.125 368.875 C258.58953175 372.8136623 253.99827384 376.63303084 249.25 380.3125 C243.92362144 384.45224233 238.69436301 388.69586587 233.5 393 C228.30560076 397.30416415 223.07558739 401.54670621 217.75 405.6875 C213.24333241 409.1926859 208.83778912 412.78789138 204.5 416.5 C199.56254647 420.72355073 194.53054692 424.79766038 189.39526367 428.77832031 C186.18413992 431.26984068 183.01527308 433.7997448 179.88671875 436.39453125 C179.20657715 436.95406494 178.52643555 437.51359863 177.82568359 438.09008789 C176.50538152 439.17870465 175.19162199 440.27531597 173.88525391 441.38061523 C172.31816365 442.66573109 170.66454391 443.84389092 169 445 C166 444 166 444 165.09288025 442.40789795 C164.84043045 441.71222717 164.58798065 441.0165564 164.32788086 440.29980469 C164.03055054 439.49866241 163.73322021 438.69752014 163.42687988 437.87210083 C163.10940796 436.98102631 162.79193604 436.08995178 162.46484375 435.171875 C162.11877075 434.23076874 161.77269775 433.28966248 161.4161377 432.32003784 C160.65351777 430.24247008 159.89616866 428.16296219 159.14328003 426.08184814 C157.48017577 421.48630775 155.79111458 416.90043736 154.10377502 412.31375122 C153.18732947 409.82191922 152.27197852 407.32971429 151.35826111 404.83688354 C146.08381468 390.4557063 140.67051822 376.12719893 135.25789261 361.79759216 C133.87449862 358.13404022 132.49280542 354.46984708 131.11108398 350.80566406 C129.14385786 345.58900027 127.17635474 340.37244126 125.20830059 335.15608978 C121.62742239 325.66483332 118.04931741 316.17253384 114.47265625 306.6796875 C114.20534636 305.97022099 113.93803646 305.26075447 113.66262627 304.52978897 C112.31436456 300.95133056 110.96614743 297.37285535 109.61795044 293.79437256 C107.1832007 287.33194716 104.74805419 280.86967127 102.3129406 274.40738297 C100.9586111 270.81326133 99.60430681 267.21913019 98.25 263.625 C97.70833345 262.18749995 97.16666679 260.74999995 96.625 259.3125 C67.37499122 181.68747669 67.37499122 181.68747669 66.56249142 179.53122711 C66.02085346 178.09380337 65.4792154 176.65637966 64.93757725 175.21895599 C63.58297057 171.62403955 62.22836558 168.02912248 60.87376404 164.4342041 C58.44152008 157.97938209 56.00926471 151.52456439 53.5769453 145.06977081 C52.22967386 141.49443372 50.88241243 137.91909285 49.53515625 134.34375 C49.26812456 133.635103 49.00109287 132.92645599 48.72596931 132.19633484 C45.11502056 122.6135648 41.50451391 113.03062832 37.89440918 103.44754028 C36.75654143 100.42706649 35.6186 97.40662047 34.48059082 94.38619995 C33.91593281 92.88751275 33.35127623 91.38882501 32.78662109 89.89013672 C32.50836613 89.15160398 32.23011116 88.41307125 31.94342422 87.65215874 C30.28894729 83.2606874 28.63508122 78.8689866 26.9817009 74.47710228 C21.87085803 60.90163043 16.75156849 47.32966965 11.58984375 33.7734375 C10.77604251 31.63284312 9.96231888 29.49221923 9.14868164 27.3515625 C7.67799859 23.48228902 6.20114569 19.61545457 4.72045898 15.75 C4.08161577 14.0704086 3.44300851 12.39072743 2.8046875 10.7109375 C2.51548935 9.96145844 2.2262912 9.21197937 1.92832947 8.43978882 C0.80861042 5.47925366 0 3.19411297 0 0 Z " fill="#A61E23" transform="translate(2942,1196)"/>
</svg>
